<svg id="logo-mc" data-name="logo-mc" xmlns="http://www.w3.org/2000/svg" viewBox="0 0 195.3 71.44">
  <defs>
    <style>
      .cls-1 {
        fill: #45BF87;
      }
    </style>
  </defs>
  <g>
    <path class="cls-1" d="M153.34,313.63q-.45-1.69,1.51-6.87t4.53-10.44q2.56-5.26,4.68-9.85t1.93-5.25c-.05-.2-.3-.37-.76-.51a2.25,2.25,0,0,0-1-.12c-.22.06-.42.27-.63.64s-.41.59-.6.64h-.64c-1,.26-2.26,1.39-3.8,3.38s-3.69,5.11-6.47,9.36-5,7.57-6.81,10c0,.07-.08,0-.13-.15a1.53,1.53,0,0,1,0-.46l1.31-5.57q.47-2.72,4.47-13.58a1,1,0,0,0,.2-.78c-.08-.31-.39-.4-.95-.25a9.61,9.61,0,0,0-2.35,1.16q-2.15,2-6.68,9.08t-8.41,13.55q-3.88,6.49-4.17,6.8-1.17,1.94-5.71,9.91c-.22.32-.31.55-.28.66s.2.13.51.05c.54-.27,2.06-1.21,4.57-2.84q2.05-1.86,5.9-9.19l6.49-12.34c.27-.55,1.18-2.28,2.73-5.17s2.33-4.34,2.35-4.34l.06,0a2,2,0,0,1-.14.67l-1.32,3.12a108.43,108.43,0,0,0-3,10.77,43.45,43.45,0,0,0-1.25,8.72,6.3,6.3,0,0,0,1.53,2.91,1.22,1.22,0,0,0,1.15.47.79.79,0,0,0,.6-.75q.76-2.25,4.66-10.09,1-2,5.41-9.1t6.27-9.85a26.36,26.36,0,0,1,1.86-2.69,1.89,1.89,0,0,1-.24.58l-2.89,5.67q-2.64,5.18-4.71,9.58c-1,2.24-1.75,3.9-2.12,5s-.73,2.25-1.07,3.55a11.19,11.19,0,0,0-.45,3.23,13.47,13.47,0,0,0,.44,2.68c.79,1.88,1.59,3,2.39,3.23a3.91,3.91,0,0,0,1.07.2,4.66,4.66,0,0,0,1.16-.19c.48-.13.7-.29.64-.49l-.24-.39A18,18,0,0,1,153.34,313.63Z" transform="translate(-122.58 -271.22)"/>
    <path class="cls-1" d="M192.52,301.56a2.69,2.69,0,0,0,1,1.56,2.46,2.46,0,0,0,1,.49h.57a6.55,6.55,0,0,0,3-2.34,24,24,0,0,0,2.29-3.1c.42-.73.76-1.34,1-1.84.08-.14.15-.22.19-.23s.07,0,.1.11L202,299a3.68,3.68,0,0,0,.82,1.74,1.33,1.33,0,0,0,1.28.21q.81-.21,3.47-3.41c.74-.89,1.56-1.95,2.46-3.17s1.71-2.33,2.4-3.32,1.27-1.79,1.93-2.74a75.61,75.61,0,0,1-3.59,7.75.75.75,0,0,0,0,.37c.09.32.37.54.86.66a2.37,2.37,0,0,0,1,.12,1.46,1.46,0,0,0,.61-.36c.2-.2,1.36-1.67,3.45-4.43l3.61-4.77q.12-.21.21-.24a.08.08,0,0,1,.1.07.2.2,0,0,1,0,.19l-.53.91a34.43,34.43,0,0,0-2.52,5.8,1.52,1.52,0,0,0,0,.82c.22.85.8,1.15,1.74.91a1.64,1.64,0,0,0,.79-.44q1.77-1.59,7.54-9.71c.13-.18.2-.25.22-.21a2.12,2.12,0,0,1-.14.51l-1.17,3a5,5,0,0,0-.3,3c.62,2.33,2,3.2,4.19,2.63q1.71-.45,5.11-4.89,1.84-2.42,3.15-4.26a6.65,6.65,0,0,0,.19,2c.71,2.66,2.15,3.71,4.33,3.13q2.76-.72,6.52-4.23a57.33,57.33,0,0,0,6.45-7,63.68,63.68,0,0,0,4.25-6.21,1.06,1.06,0,0,0,.18-.86A.92.92,0,0,0,260,272l-.92,1.1-1.15,1.39a89.93,89.93,0,0,1-8.71,9.41,16.28,16.28,0,0,1-6.52,3.73c-.37,0-.61-.27-.74-.74a4.07,4.07,0,0,1,.2-2c.26-.87.48-1.33.68-1.39a.76.76,0,0,1,.5,0,1.15,1.15,0,0,0,1.21.36,9.25,9.25,0,0,0,2.61-1.84,20.09,20.09,0,0,0,3.44-3.95c1-1.53,1.41-2.76,1.16-3.69a2.32,2.32,0,0,0-1.28-1.35,2.84,2.84,0,0,0-2.1-.31,10.88,10.88,0,0,0-4.8,3.2,19.25,19.25,0,0,0-2.82,3.76c-.73.91-1.51,1.89-2.35,3-1.6,2-2.9,3.63-3.88,4.77a22.46,22.46,0,0,1-2.63,2.64,5.25,5.25,0,0,1-1.63,1.06c-.32.09-.52,0-.59-.25a2.31,2.31,0,0,1,.06-1.15,7.29,7.29,0,0,1,.81-2.48c.32-.63.84-1.62,1.56-3l2.88-5.39a.93.93,0,0,0,0-.6c-.06-.23-.25-.37-.57-.44l-1.12-.48a1.24,1.24,0,0,0-.56.06,1.92,1.92,0,0,0-.88.68,28.73,28.73,0,0,1-1.81,2.39q-1.51,1.9-5.89,6.91l-.18.18s0,0-.06-.07a3.91,3.91,0,0,1,.35-.91l1.77-4.51a1.35,1.35,0,0,0,0-.74c-.05-.22-.27-.39-.65-.49a1.83,1.83,0,0,0-1,0,9.17,9.17,0,0,0-2.2,2.17l-4.66,5.45-.12.07c-.06,0-.09,0-.11-.08a.37.37,0,0,1,.06-.27,16.06,16.06,0,0,0,1.37-3.95,2.08,2.08,0,0,0,.06-1.15,1.39,1.39,0,0,0-.79-.86A1.6,1.6,0,0,0,217,282a1.09,1.09,0,0,0-.68.64,11.75,11.75,0,0,0-.57,1.59C211,290,207.44,293.94,205,296a5,5,0,0,1,.46-2.39c.23-.61.46-1.16.7-1.66s.62-1.33,1.17-2.47,1-2.16,1.42-3.06a1.42,1.42,0,0,0,.35-1.09.9.9,0,0,0-.43-.59,1,1,0,0,0-.58-.14,1.29,1.29,0,0,0-.94-.3,1.22,1.22,0,0,0-.66.63,1.6,1.6,0,0,0-1.57-.82,11,11,0,0,0-4.57,2.93,28.27,28.27,0,0,0-2.78,3.14q-5.16,6-9.3,10a13.08,13.08,0,0,1-2.15,1.93c-.18,0-.29,0-.31-.06q-.39-1.49,1.64-6.11a87.54,87.54,0,0,1,6.6-11.64c1.31-2,2.38-3.73,3.19-5.07a32,32,0,0,0,2.17-4.2,5.57,5.57,0,0,0,.66-3.27.65.65,0,0,0-.9-.49c-1.42.37-3.09,2.1-5,5.16a68.51,68.51,0,0,0-4.77,8.89q-1.87,4.29-1.75,4.58c-.54-.68-1.07-.95-1.58-.81a10.74,10.74,0,0,0-4.55,2.92c-.27.26-.52.53-.77.8h0l0,.06a30.26,30.26,0,0,0-2.7,3.31,81.36,81.36,0,0,1-8.54,9.19,5.26,5.26,0,0,1,.46-2.39c.24-.61.47-1.16.7-1.66l1.17-2.47c.55-1.14,1-2.16,1.43-3.06a1.41,1.41,0,0,0,.35-1.09.9.9,0,0,0-.43-.59,1,1,0,0,0-.58-.14,1.32,1.32,0,0,0-.95-.3,1.24,1.24,0,0,0-.65.63c-.51-.66-1-.93-1.58-.82a11,11,0,0,0-4.57,2.93,27.55,27.55,0,0,0-4.2,5.18,33.78,33.78,0,0,0-2.85,5.52c-.72,1.81-1,3.08-.79,3.82a2.61,2.61,0,0,0,1,1.56,2.41,2.41,0,0,0,1,.49h.57a6.64,6.64,0,0,0,2.95-2.35,23.31,23.31,0,0,0,2.3-3.1c.42-.73.75-1.34,1-1.84.08-.14.15-.22.19-.23s.07,0,.1.11l.37,2.81a3.58,3.58,0,0,0,.82,1.74,1.32,1.32,0,0,0,1.28.21q.81-.21,3.47-3.41c.55-.67,1.16-1.44,1.81-2.3a4.18,4.18,0,0,0-.15,1.91,2.63,2.63,0,0,0,.95,1.57,2.57,2.57,0,0,0,1,.48c.23,0,.42,0,.57,0a6.7,6.7,0,0,0,2.95-2.35,23.57,23.57,0,0,0,2.3-3.1c.41-.73.75-1.34,1-1.83.09-.15.15-.23.19-.24s.08,0,.09.09,0,.58.07,1.53a9.86,9.86,0,0,0,.21,2.11,1.53,1.53,0,0,0,1,1,3.62,3.62,0,0,0,1.72.23,5.9,5.9,0,0,0,1.6-.65q1.95-1.2,5.31-5.58A3.93,3.93,0,0,0,192.52,301.56Zm52.95-23.35q2-3,3.15-3.26c.17-.05.27,0,.31.14.13.51-.55,1.71-2,3.58s-2.55,2.9-3.17,3.07q-.12,0-.15-.06C243.48,281.34,244.12,280.18,245.47,278.21Zm-77.42,21.14c-1.19,1.8-2.48,3.63-3.86,5.47s-2.23,2.82-2.57,2.91c-.06,0-.1,0-.11-.06-.13-.49.26-1.58,1.16-3.29a30.09,30.09,0,0,1,3.45-5.09c1.41-1.68,2.65-2.67,3.73-3,.08,0,.13,0,.14,0s0,.13-.11.28ZM184.79,295c-1.23,1.8-2.52,3.63-3.9,5.48s-2.24,2.81-2.58,2.9a.09.09,0,0,1-.11-.06c-.12-.48.26-1.58,1.16-3.29a29.59,29.59,0,0,1,3.46-5.09c1.4-1.68,2.64-2.67,3.72-2.95q.14,0,.15,0a.59.59,0,0,1-.11.28Zm16.91-5c1.4-1.68,2.64-2.67,3.72-2.95.08,0,.13,0,.14,0s0,.13-.11.28l-1.83,2.7c-1.19,1.8-2.48,3.63-3.86,5.47s-2.23,2.82-2.57,2.91c-.06,0-.1,0-.11-.07-.13-.48.26-1.57,1.16-3.28A29.59,29.59,0,0,1,201.7,289.94Z" transform="translate(-122.58 -271.22)"/>
    <path class="cls-1" d="M212.8,325.83c0-.11-.08-.16-.15-.14s-.18.14-.33.36a58.14,58.14,0,0,1-7.11,7.1,55.77,55.77,0,0,1-5.94,4.47,14.26,14.26,0,0,1-2.88,1.48.83.83,0,0,1-1.14-.7,10.93,10.93,0,0,1,.27-4.68,35,35,0,0,1,2.45-7.1,55.25,55.25,0,0,1,4.27-7.71,30.48,30.48,0,0,1,6.18-6.81A20.32,20.32,0,0,1,216.2,308c.77-.2,1.2-.11,1.31.29q.24.95-3.23,5.35T210,318.27s0,0-.06-.08a5.57,5.57,0,0,1,.79-1.12c.82-.79,1.18-1.38,1.08-1.78-.06-.23-.15-.32-.28-.29s-.28.23-.46.58a25.31,25.31,0,0,1-4.71,4.23c-.59.49-.84.95-.73,1.38a2,2,0,0,0,1.71,1.46,5.32,5.32,0,0,0,2.54,0,13.64,13.64,0,0,0,5.4-3.26,23,23,0,0,0,4.64-5.67c1.17-2.05,1.58-3.78,1.21-5.18a3.47,3.47,0,0,0-3-2.58,10.86,10.86,0,0,0-4.93.18,25.94,25.94,0,0,0-8.82,4.48,39.38,39.38,0,0,0-7.69,7.56,31.62,31.62,0,0,0-4.89,9.15,15.68,15.68,0,0,0-.64,8.87l.25.8a10.88,10.88,0,0,0,2.45,3.95,5.11,5.11,0,0,0,2.42,1.5,7,7,0,0,0,3.78-.13,12.6,12.6,0,0,0,4.65-2.54,18.8,18.8,0,0,0,3.83-4.17,33.14,33.14,0,0,0,2.49-4.45,24.31,24.31,0,0,0,1.44-3.7A6.67,6.67,0,0,0,212.8,325.83Z" transform="translate(-122.58 -271.22)"/>
    <path class="cls-1" d="M317.85,296.4a.9.9,0,0,0-.57-.62l-.92,1.1c-.52.62-.9,1.09-1.15,1.4a89.61,89.61,0,0,1-8.71,9.4,16.43,16.43,0,0,1-6.52,3.74c-.37,0-.61-.28-.74-.74a4.1,4.1,0,0,1,.2-2q.39-1.31.69-1.38a.77.77,0,0,1,.5,0,1.14,1.14,0,0,0,1.21.37,9.53,9.53,0,0,0,2.6-1.85,19.5,19.5,0,0,0,3.44-3.95c1-1.52,1.41-2.76,1.16-3.69a2.28,2.28,0,0,0-1.28-1.34,2.79,2.79,0,0,0-2.1-.31,10.81,10.81,0,0,0-4.8,3.19,19.38,19.38,0,0,0-3.86,5.82l-.56.7q-2.4,3.07-3.89,4.77a23.51,23.51,0,0,1-2.62,2.65,5.45,5.45,0,0,1-1.63,1.06c-.32.09-.52,0-.59-.25a7.37,7.37,0,0,1-.19-1.77,4.49,4.49,0,0,1,.25-.95c.14-.39.27-.73.39-1a12.82,12.82,0,0,1,.62-1.35l.81-1.6c.24-.47.6-1.17,1.1-2.11s.94-1.77,1.32-2.5a.87.87,0,0,0,0-.6c-.06-.23-.25-.37-.57-.44l-1.28,0a1.24,1.24,0,0,0-.56.06,1.88,1.88,0,0,0-.88.69c-1.68,2.28-3.85,5-6.54,8.17l-.18.18s0,0-.06-.07a3.55,3.55,0,0,1,.35-.92l2-5.25a1.17,1.17,0,0,0,0-.66c-.07-.28-.4-.46-1-.55a3.46,3.46,0,0,0-1.21-.05c-.31.08-.63.59-.94,1.52-.12.34-.24.72-.37,1.12A120.27,120.27,0,0,1,269,319a4.27,4.27,0,0,1-.95.53.46.46,0,0,1-.64-.34,2.31,2.31,0,0,1,.06-1.15,16.27,16.27,0,0,1,1.23-4.25c.7-1.75,1.26-3,1.65-3.73s.69-1.29.89-1.64a1.26,1.26,0,0,0,.23-.75c0-.14-.15-.23-.34-.27a4.51,4.51,0,0,0-1.79.1,3.28,3.28,0,0,0-1.54.91,9.69,9.69,0,0,0-1.51,2.69l-.18.42q-5.18,6.24-10.82,11.95a3.41,3.41,0,0,1-.94.52,1,1,0,0,1-.57,0,.43.43,0,0,1-.3-.31q-.35-1.32,1.41-5.32a61.62,61.62,0,0,1,4-7.54q2.19-3.53,3-3.78,1.8-.57,6.57-2.39l2.07-.79a.86.86,0,0,0,.75.25,4,4,0,0,0,1.92-1.25l.05-.06.78-.32c.53-.23.76-.46.7-.68a.6.6,0,0,0-.4-.39.05.05,0,0,0,0,0c.17-.33.32-.62.43-.88a1.24,1.24,0,0,0,.05-.83,2.2,2.2,0,0,0-.9-1c-.11-.09-.31-.09-.6,0a4.66,4.66,0,0,0-2.19,1.87,5.86,5.86,0,0,0-.36.56,20.4,20.4,0,0,0-3.62.64l-2.15.62c-.4.1-.63.06-.68-.14a7.36,7.36,0,0,1,0-1.09l.67-1.77a1.92,1.92,0,0,0,.14-.85c-.11-.43-.68-.51-1.7-.24s-1.57.6-1.65,1l-1.9,4.68q-5.5,1.9-9.74,3.7l-4.51,1.91-.41.18-.29.12a.17.17,0,0,0-.12.23c.09.35.6.48,1.52.42q.51,1.23,6.16-.25l2.65-.79c.6-.16.92-.15,1,0a.79.79,0,0,1-.23.65,44.62,44.62,0,0,0-3.76,6.7l-1.18,1.48q-2.4,3.07-3.88,4.78a23.3,23.3,0,0,1-2.62,2.64,5.45,5.45,0,0,1-1.63,1.06c-.33.09-.52,0-.59-.25a6.89,6.89,0,0,1-.19-1.77,4,4,0,0,1,.25-.95c.14-.38.27-.73.39-1a12.82,12.82,0,0,1,.62-1.35l.81-1.6c.24-.47.6-1.17,1.1-2.1s.94-1.77,1.32-2.51a.93.93,0,0,0,0-.6.67.67,0,0,0-.57-.44l-1.28,0a1.2,1.2,0,0,0-.55.06,1.9,1.9,0,0,0-.89.69q-2.5,3.42-6.53,8.17l-.18.18s0,0-.06-.07a3.43,3.43,0,0,1,.35-.91l2-5.26a1.07,1.07,0,0,0,.06-.65c-.07-.29-.4-.47-1-.56a3.46,3.46,0,0,0-1.21-.05c-.32.09-.63.59-1,1.52l-.09.29q-7.34,9.11-11.07,12.28a5.17,5.17,0,0,1,.47-2.39c.23-.61.46-1.16.7-1.66s.62-1.33,1.17-2.47,1-2.16,1.42-3.05a1.44,1.44,0,0,0,.35-1.1.9.9,0,0,0-.43-.59,1,1,0,0,0-.58-.14,1.29,1.29,0,0,0-.94-.3,1.22,1.22,0,0,0-.66.63,1.58,1.58,0,0,0-1.58-.81,10.82,10.82,0,0,0-4.56,2.92,27.22,27.22,0,0,0-4.21,5.18,34.59,34.59,0,0,0-2.85,5.52c-.72,1.81-1,3.08-.79,3.82a2.63,2.63,0,0,0,1,1.56,2.41,2.41,0,0,0,1,.49c.23,0,.43,0,.57,0a6.71,6.71,0,0,0,3-2.35,24,24,0,0,0,2.29-3.1c.42-.73.76-1.34,1-1.84.08-.14.15-.22.19-.23s.07,0,.1.11l.37,2.81a3.68,3.68,0,0,0,.82,1.74,1.33,1.33,0,0,0,1.28.21q.81-.21,3.47-3.41c.74-.89,1.56-1.95,2.46-3.17s1.71-2.33,2.4-3.31l2.17-3.09.24-.36a14.42,14.42,0,0,1-1.17,2.74A33.26,33.26,0,0,1,230,330a1.43,1.43,0,0,0,0,.82c.22.85.8,1.15,1.73.91a1.67,1.67,0,0,0,.8-.44q1.75-1.6,7.54-9.71c.13-.18.2-.26.21-.21a1.68,1.68,0,0,1-.14.51l-1.16,3a5,5,0,0,0-.3,3c.61,2.32,2,3.2,4.19,2.62,1.13-.29,2.84-1.92,5.1-4.88.83-1.09,1.58-2.08,2.24-3a5.5,5.5,0,0,0,0,2,4.59,4.59,0,0,0,1.63,2.67,2.55,2.55,0,0,0,2.19.55,7,7,0,0,0,1.75-.68q1.95-1.25,6.17-7c.71-.94,1.45-2,2.21-3.07a7.79,7.79,0,0,0-.27,3.47c.61,2.33,2,3.2,4.19,2.63a6.86,6.86,0,0,0,1.61-.65q2.19-1.35,6.14-6.71c1-1.35,2.08-2.85,3.23-4.48l.19-.27c-.16.35-.33.69-.5,1a33.26,33.26,0,0,1-3.18,5.88,1.43,1.43,0,0,0,0,.82q.33,1.28,1.74.9a1.55,1.55,0,0,0,.79-.43q1.76-1.6,7.54-9.71.19-.28.21-.21a1.5,1.5,0,0,1-.13.51l-1.17,3a5,5,0,0,0-.3,3c.61,2.32,2,3.2,4.19,2.62q1.71-.44,5.1-4.88c.91-1.18,1.71-2.26,2.42-3.23a6.46,6.46,0,0,0,.19,1.18q1,4,4.32,3.14c1.84-.49,4-1.9,6.52-4.24a58,58,0,0,0,6.45-7,63.68,63.68,0,0,0,4.25-6.21A1.06,1.06,0,0,0,317.85,296.4Zm-94.76,27.37c-1.19,1.79-2.48,3.62-3.86,5.46s-2.23,2.82-2.57,2.91c-.06,0-.1,0-.11-.06-.13-.49.26-1.58,1.16-3.29a30.09,30.09,0,0,1,3.45-5.09c1.41-1.68,2.65-2.67,3.73-2.95.08,0,.13,0,.14,0s0,.13-.11.28Zm82.84-25c.17,0,.27,0,.31.15q.19.76-2,3.58c-1.49,1.88-2.55,2.89-3.17,3.06-.08,0-.13,0-.15-.05-.09-.34.55-1.5,1.9-3.48S305.19,299,305.93,298.76Z" transform="translate(-122.58 -271.22)"/>
  </g>
</svg>
